<?xml version="1.0" encoding="UTF-8" standalone="no"?>
<svg
   width="100%"
   height="100%"
   viewBox="0 0 576 248"
   version="1.1"
   xml:space="preserve"
   style="fill-rule:evenodd;clip-rule:evenodd;stroke-linecap:round;stroke-linejoin:round;stroke-miterlimit:1.5;"
   id="svg17"
   sodipodi:docname="green_case_two_paypal_en.svg"
   inkscape:version="1.2.2 (732a01da63, 2022-12-09)"
   xmlns:inkscape="http://www.inkscape.org/namespaces/inkscape"
   xmlns:sodipodi="http://sodipodi.sourceforge.net/DTD/sodipodi-0.dtd"
   xmlns="http://www.w3.org/2000/svg"
   xmlns:svg="http://www.w3.org/2000/svg"><defs
   id="defs17" /><sodipodi:namedview
   id="namedview17"
   pagecolor="#ffffff"
   bordercolor="#000000"
   borderopacity="0.25"
   inkscape:showpageshadow="2"
   inkscape:pageopacity="0.0"
   inkscape:pagecheckerboard="0"
   inkscape:deskcolor="#d1d1d1"
   inkscape:zoom="2.0972222"
   inkscape:cx="103.23179"
   inkscape:cy="124.45033"
   inkscape:window-width="2560"
   inkscape:window-height="1369"
   inkscape:window-x="1912"
   inkscape:window-y="-8"
   inkscape:window-maximized="1"
   inkscape:current-layer="blue_case_de"
   showgrid="false" />
    <g
   transform="matrix(1,0,0,1,-21,-368)"
   id="g17">
        <g
   id="blue_case_de"
   transform="matrix(1,0,0,1,0,51.1207)">
            <g
   id="border_template"
   transform="matrix(4.87356,0,0,2.5,-149.336,264.233)">
                <path
   d="M153,32C153,30.896 152.54,30 151.974,30L36.026,30C35.46,30 35,30.896 35,32L35,118C35,119.104 35.46,120 36.026,120L151.974,120C152.54,120 153,119.104 153,118L153,32Z"
   style="fill:white;"
   id="path1" />
                <path
   d="M153,32C153,30.896 152.54,30 151.974,30L36.026,30C35.46,30 35,30.896 35,32L35,118C35,119.104 35.46,120 36.026,120L151.974,120C152.54,120 153,119.104 153,118L153,32ZM36.231,32.4L36.231,117.6L151.769,117.6L151.769,32.4L36.231,32.4Z"
   style="fill:#008000;fill-opacity:1"
   id="path2" />
            </g>
            <g
   transform="matrix(1,0,0,1,-2.19632,-6.58598)"
   id="g2">
                <text
   x="24.239px"
   y="337px"
   style="font-family:ArialMT, Arial, sans-serif;font-size:18.149px;fill:#195ace;-inkscape-font-specification:'ArialMT, Arial, sans-serif, Normal';font-weight:normal;font-style:normal;font-stretch:normal;font-variant:normal;font-variant-ligatures:normal;font-variant-caps:normal;font-variant-numeric:normal;font-variant-east-asian:normal"
   id="text2"><tspan
     sodipodi:role="line"
     id="tspan276">https://www.paypal.com/de/home</tspan></text>
                <rect
   x="24.239"
   y="338.923"
   width="267.17389"
   height="1.329"
   style="fill:#195ace;stroke-width:1.02935"
   id="rect2" />
            </g>
            <g
   id="text_in_border"
   transform="matrix(1,0,0,1,-16.2752,8.6588)">
                <g
   id="URL_optimized_readability"
   transform="matrix(1,0,0,1,-1,-1)">
                    
                    
                    <text
   x="56.824997"
   y="399"
   style="font-style:normal;font-variant:normal;font-weight:bold;font-stretch:normal;font-size:18.149px;font-family:Arial-BoldMT, Arial, sans-serif;-inkscape-font-specification:'Arial-BoldMT, Arial, sans-serif, Bold';font-variant-ligatures:normal;font-variant-caps:normal;font-variant-numeric:normal;font-variant-east-asian:normal"
   id="text5"><tspan
     sodipodi:role="line"
     id="tspan278">p a y p a l . c o m</tspan></text>
                    <text
   x="206.12819"
   y="399"
   style="font-style:normal;font-variant:normal;font-weight:normal;font-stretch:normal;font-size:18.149px;font-family:ArialMT, Arial, sans-serif;-inkscape-font-specification:'ArialMT, Arial, sans-serif, Normal';font-variant-ligatures:normal;font-variant-caps:normal;font-variant-numeric:normal;font-variant-east-asian:normal;fill:#0000ff;fill-opacity:1"
   id="text6"><tspan
     sodipodi:role="line"
     id="tspan18"
     x="206.12819"
     y="399">[..]</tspan></text>
                </g>
                <g
   id="first_line"
   transform="matrix(1,0,0,1,-2.25699,0)">
                    <text
   x="58px"
   y="362px"
   style="font-family:ArialMT, Arial, sans-serif;font-size:18.149px;-inkscape-font-specification:'ArialMT, Arial, sans-serif, Normal';font-weight:normal;font-style:normal;font-stretch:normal;font-variant:normal;font-variant-ligatures:normal;font-variant-caps:normal;font-variant-numeric:normal;font-variant-east-asian:normal"
   id="text7"><tspan
     sodipodi:role="line"
     id="tspan1">Deposited URL (also called web address):</tspan></text>
                </g>
                <g
   transform="matrix(1,0,0,1,-5.45944,3)"
   id="g12">
                    <text
   x="62px"
   y="434.787px"
   style="font-family:ArialMT, Arial, sans-serif;font-size:18.149px;-inkscape-font-specification:'ArialMT, Arial, sans-serif, Normal';font-weight:normal;font-style:normal;font-stretch:normal;font-variant:normal;font-variant-ligatures:normal;font-variant-caps:normal;font-variant-numeric:normal;font-variant-east-asian:normal"
   id="text8"><tspan
     sodipodi:role="line"
     id="tspan9">Low risk: the risk of clicking the link is considered to be low</tspan></text>
                    <text
   x="62px"
   y="458.53px"
   style="font-family:ArialMT, Arial, sans-serif;font-size:18.149px;-inkscape-font-specification:'ArialMT, Arial, sans-serif, Normal';font-weight:normal;font-style:normal;font-stretch:normal;font-variant:normal;font-variant-ligatures:normal;font-variant-caps:normal;font-variant-numeric:normal;font-variant-east-asian:normal"
   id="text9"><tspan
     sodipodi:role="line"
     id="tspan11">because of your previous statements concerning the</tspan></text>
                    
                    <text
   x="309.9646"
   y="480.74884"
   style="font-style:normal;font-variant:normal;font-weight:bold;font-stretch:normal;font-size:18.149px;font-family:Arial-BoldMT, Arial, sans-serif;-inkscape-font-specification:'Arial-BoldMT, Arial, sans-serif, Bold';font-variant-ligatures:normal;font-variant-caps:normal;font-variant-numeric:normal;font-variant-east-asian:normal"
   id="text11"><tspan
     sodipodi:role="line"
     id="tspan5"
     x="309.9646"
     y="480.74884">bold area</tspan></text>
                    <text
   x="390.22308"
   y="480.36472"
   style="font-style:normal;font-variant:normal;font-weight:normal;font-stretch:normal;font-size:18.149px;font-family:ArialMT, Arial, sans-serif;-inkscape-font-specification:'ArialMT, Arial, sans-serif, Normal';font-variant-ligatures:normal;font-variant-caps:normal;font-variant-numeric:normal;font-variant-east-asian:normal"
   id="text12"><tspan
     sodipodi:role="line"
     id="tspan13"
     x="390.22308"
     y="480.36472">) of this URL.</tspan></text>
                <text
   x="40.680065"
   y="492.31079"
   style="fill-rule:evenodd;clip-rule:evenodd;stroke-linecap:round;stroke-linejoin:round;stroke-miterlimit:1.5;font-style:normal;font-variant:normal;font-weight:normal;font-stretch:normal;font-size:18.149px;font-family:ArialMT, Arial, sans-serif;-inkscape-font-specification:'ArialMT, Arial, sans-serif, Normal';font-variant-ligatures:normal;font-variant-caps:normal;font-variant-numeric:normal;font-variant-east-asian:normal"
   id="text9-9"
   transform="translate(21.73464,-11.6588)"><tspan
     sodipodi:role="line"
     id="tspan12">trustworthiness of the domain (</tspan></text></g>
                <g
   id="more_information_classification"
   transform="matrix(1,0,0,1,0.98364,-65.9701)">
                    <g
   transform="matrix(1,0,0,1,-592.961,-556.608)"
   id="g13">
                        <text
   x="695px"
   y="1149.09px"
   style="font-family:ArialMT, Arial, sans-serif;font-size:19px;-inkscape-font-specification:'ArialMT, Arial, sans-serif, Normal';font-weight:normal;font-style:normal;font-stretch:normal;font-variant:normal;font-variant-ligatures:normal;font-variant-caps:normal;font-variant-numeric:normal;font-variant-east-asian:normal"
   id="text13"><tspan
     sodipodi:role="line"
     id="tspan10">More information on this classification</tspan></text>
                        <rect
   x="695"
   y="1151.1"
   width="317.46234"
   height="1.392"
   id="rect13"
   style="stroke-width:0.990378" />
                    </g>
                    <g
   id="info_icon"
   transform="matrix(1,0,0,1,-591.961,-552.438)">
                        <g
   id="information_icon_text"
   transform="matrix(1,0,0,1,0,0.499922)">
                            <g
   transform="matrix(30,0,0,30,658.802,1148.72)"
   id="g14">
                                <path
   d="M0.199,-0C0.181,0.004 0.177,0.008 0.127,0.009C0.118,0.009 0.108,0.006 0.102,0.005C0.076,-0 0.064,-0.008 0.065,-0.018L0.065,-0.021C0.081,-0.113 0.09,-0.166 0.093,-0.181C0.103,-0.243 0.107,-0.297 0.107,-0.342C0.107,-0.352 0.103,-0.359 0.093,-0.363C0.083,-0.366 0.071,-0.368 0.056,-0.368C0.041,-0.368 0.031,-0.367 0.026,-0.367L0.028,-0.393C0.037,-0.391 0.045,-0.391 0.053,-0.391L0.077,-0.391C0.093,-0.391 0.116,-0.395 0.146,-0.403C0.177,-0.411 0.199,-0.415 0.213,-0.415C0.224,-0.415 0.231,-0.411 0.233,-0.403C0.236,-0.396 0.237,-0.388 0.237,-0.382C0.237,-0.326 0.233,-0.259 0.224,-0.179C0.218,-0.138 0.214,-0.097 0.209,-0.057L0.261,-0.068L0.266,-0.037C0.256,-0.029 0.246,-0.022 0.236,-0.017C0.226,-0.011 0.212,-0.003 0.199,-0Z"
   style="fill:rgb(10,20,87);fill-rule:nonzero;"
   id="path13" />
                            </g>
                            <g
   transform="matrix(1.75018,0,0,1.75018,-498.398,-849.473)"
   id="g15">
                                <circle
   cx="664.369"
   cy="1132.35"
   r="1.333"
   style="fill:rgb(10,20,87);"
   id="circle14" />
                            </g>
                        </g>
                        <g
   transform="matrix(0.9375,0,0,0.9375,41.6198,72.1875)"
   id="g16">
                            <circle
   cx="663"
   cy="1139"
   r="16"
   style="fill:none;stroke:rgb(10,20,87);stroke-width:3px;"
   id="circle15" />
                        </g>
                    </g>
                </g>
            </g>
            <g
   id="mouse_cursor"
   transform="matrix(0.565212,0,0,0.565212,2.18179,188.138)">
                <path
   d="M353,272C353.833,273.715 355.845,275.407 357,277.292C358.544,279.815 362.266,287.133 362.266,287.133C362.266,287.133 364.95,291.689 367,293C369.05,294.311 372.233,295 374.566,295C376.812,295 379.134,294.25 381,293C383.239,291.5 386.774,289.064 388,286C389.333,282.667 389,276.833 389,273C389,269.65 388.588,264.878 388,263C386.962,259.685 382.287,260.866 382.357,262.065C382.507,264.632 382.434,266.133 382.434,266.133C382.434,266.133 382.572,261.355 382,260C381.533,258.893 380.031,258 379,258C377.969,258 375.532,258.29 375.816,260C376.1,261.71 375.816,266 375.816,266C375.816,266 376.119,261.5 375.816,260C375.585,258.854 374.803,257.5 374,257C373.197,256.5 371.769,256.862 371,257C370.405,257.107 369.388,257.829 369.388,257.829L369.434,266C369.434,266 369.426,247.097 368.96,245.231C368.394,242.967 362.732,242.649 361.96,245.231C361.187,247.812 362,272 362,272C362,272 357.188,265.357 356,265C354.812,264.643 352.277,264.877 352,267C351.723,269.123 352.257,270.471 353,272Z"
   style="fill:white;stroke:black;stroke-width:2.03px;"
   id="path16" />
            </g>
        </g>
    </g>
</svg>
