<?xml version="1.0" encoding="UTF-8" standalone="no"?>
<svg
   width="584.5"
   height="319"
   viewBox="0 0 584.5 319"
   version="1.1"
   xml:space="preserve"
   style="clip-rule:evenodd;fill-rule:evenodd;stroke-linecap:round;stroke-linejoin:round;stroke-miterlimit:1.5"
   id="svg21"
   sodipodi:docname="grey_case_one_en.svg"
   inkscape:version="1.2.2 (732a01da63, 2022-12-09)"
   xmlns:inkscape="http://www.inkscape.org/namespaces/inkscape"
   xmlns:sodipodi="http://sodipodi.sourceforge.net/DTD/sodipodi-0.dtd"
   xmlns="http://www.w3.org/2000/svg"
   xmlns:svg="http://www.w3.org/2000/svg"><defs
   id="defs21" /><sodipodi:namedview
   id="namedview21"
   pagecolor="#ffffff"
   bordercolor="#000000"
   borderopacity="0.25"
   inkscape:showpageshadow="2"
   inkscape:pageopacity="0.0"
   inkscape:pagecheckerboard="0"
   inkscape:deskcolor="#d1d1d1"
   inkscape:zoom="2.371246"
   inkscape:cx="243.54285"
   inkscape:cy="148.44516"
   inkscape:window-width="2560"
   inkscape:window-height="1369"
   inkscape:window-x="1912"
   inkscape:window-y="-8"
   inkscape:window-maximized="1"
   inkscape:current-layer="g21"
   showgrid="false" />
    <g
   transform="translate(-21,-1028)"
   id="g21">
        <g
   id="simple-grey_case_no-phish_de"
   transform="translate(0,74.5107)">
            <g
   id="border_template"
   transform="matrix(4.9544279,0,0,3.2727535,-152.16638,880.0924)">
                <path
   d="M 153,31.394 C 153,30.625 152.54,30 151.974,30 H 36.026 C 35.46,30 35,30.625 35,31.394 v 87.212 c 0,0.769 0.46,1.394 1.026,1.394 h 115.948 c 0.566,0 1.026,-0.625 1.026,-1.394 z"
   style="fill:#ffffff"
   id="path1" />
                <path
   d="M 153,31.394 C 153,30.625 152.54,30 151.974,30 H 36.026 C 35.46,30 35,30.625 35,31.394 v 87.212 c 0,0.769 0.46,1.394 1.026,1.394 h 115.948 c 0.566,0 1.026,-0.625 1.026,-1.394 z M 36.231,31.673 v 86.654 H 151.769 V 31.673 Z"
   style="fill:#bfb9b9"
   id="path2" />
            </g>
            <g
   id="text_in_border"
   transform="translate(-16.2752,651.512)">
                <g
   id="URL_optimized_readability"
   transform="translate(2,-3)">
                    
                    
                    <text
   x="54.824997"
   y="399"
   style="font-style:normal;font-variant:normal;font-weight:bold;font-stretch:normal;font-size:18.149px;font-family:Arial-BoldMT, Arial, sans-serif;-inkscape-font-specification:'Arial-BoldMT, Arial, sans-serif, Bold';font-variant-ligatures:normal;font-variant-caps:normal;font-variant-numeric:normal;font-variant-east-asian:normal;display:inline"
   id="text4"><tspan
     sodipodi:role="line"
     id="tspan24"
     x="54.824997"
     y="399">e x a m p l e . c o m</tspan></text>
                    <text
   x="229.84201"
   y="399"
   style="font-style:normal;font-variant:normal;font-weight:normal;font-stretch:normal;font-size:18.149px;font-family:ArialMT, Arial, sans-serif;-inkscape-font-specification:'ArialMT, Arial, sans-serif, Normal';font-variant-ligatures:normal;font-variant-caps:normal;font-variant-numeric:normal;font-variant-east-asian:normal;fill:#0000ff"
   id="text5"><tspan
     sodipodi:role="line"
     id="tspan22"
     x="229.84201"
     y="399">[..]</tspan></text>
                </g>
                <g
   id="first_line"
   transform="translate(-2.25699)">
                    <text
   x="58"
   y="362"
   style="font-style:normal;font-variant:normal;font-weight:normal;font-stretch:normal;font-size:18.149px;font-family:ArialMT, Arial, sans-serif;-inkscape-font-specification:'ArialMT, Arial, sans-serif, Normal';font-variant-ligatures:normal;font-variant-caps:normal;font-variant-numeric:normal;font-variant-east-asian:normal"
   id="text6"><tspan
     sodipodi:role="line"
     id="tspan1"
     x="58"
     y="362">Deposited URL (also called web address):</tspan></text>
                </g>
                <g
   transform="translate(-5.45944,-3)"
   id="g13">
                    <text
   x="62"
   y="434.78699"
   style="font-style:normal;font-variant:normal;font-weight:bold;font-stretch:normal;font-size:18.149px;font-family:Arial-BoldMT, Arial, sans-serif;-inkscape-font-specification:'Arial-BoldMT, Arial, sans-serif, Bold';font-variant-ligatures:normal;font-variant-caps:normal;font-variant-numeric:normal;font-variant-east-asian:normal"
   id="text7"><tspan
     sodipodi:role="line"
     id="tspan5"
     x="62"
     y="434.78699">Unknown risk:</tspan></text>
                    <text
   x="195.093"
   y="434.78699"
   style="font-style:normal;font-variant:normal;font-weight:normal;font-stretch:normal;font-size:18.149px;font-family:ArialMT, Arial, sans-serif;-inkscape-font-specification:'ArialMT, Arial, sans-serif, Normal';font-variant-ligatures:normal;font-variant-caps:normal;font-variant-numeric:normal;font-variant-east-asian:normal"
   id="text8"><tspan
     sodipodi:role="line"
     id="tspan6"
     x="195.093"
     y="434.78699">The risk of clicking this link can not definitively be</tspan></text>
                    <text
   x="62"
   y="458.53"
   style="font-style:normal;font-variant:normal;font-weight:normal;font-stretch:normal;font-size:18.149px;font-family:ArialMT, Arial, sans-serif;-inkscape-font-specification:'ArialMT, Arial, sans-serif, Normal';font-variant-ligatures:normal;font-variant-caps:normal;font-variant-numeric:normal;font-variant-east-asian:normal"
   id="text9"><tspan
     sodipodi:role="line"
     id="tspan7"
     x="62"
     y="458.53">classified. You have to classify the risk yourself by checking the</tspan></text>
                    <text
   x="62"
   y="482.272"
   style="font-style:normal;font-variant:normal;font-weight:normal;font-stretch:normal;font-size:18.149px;font-family:ArialMT, Arial, sans-serif;-inkscape-font-specification:'ArialMT, Arial, sans-serif, Normal';font-variant-ligatures:normal;font-variant-caps:normal;font-variant-numeric:normal;font-variant-east-asian:normal"
   id="text10"><tspan
     sodipodi:role="line"
     id="tspan8"
     x="62"
     y="482.272">domain (</tspan></text>
                    
                    
                    <text
   x="214.02927"
   y="481.97601"
   style="font-style:normal;font-variant:normal;font-weight:normal;font-stretch:normal;font-size:18.149px;font-family:ArialMT, Arial, sans-serif;-inkscape-font-specification:'ArialMT, Arial, sans-serif, Normal';font-variant-ligatures:normal;font-variant-caps:normal;font-variant-numeric:normal;font-variant-east-asian:normal"
   id="text13"><tspan
     sodipodi:role="line"
     id="tspan11"
     x="214.02927"
     y="481.97601">) of the URL.</tspan></text>
                <text
   x="133.76105"
   y="482.21597"
   style="font-style:normal;font-variant:normal;font-weight:bold;font-stretch:normal;font-size:18.149px;font-family:Arial-BoldMT, Arial, sans-serif;-inkscape-font-specification:'Arial-BoldMT, Arial, sans-serif, Bold';font-variant-ligatures:normal;font-variant-caps:normal;font-variant-numeric:normal;font-variant-east-asian:normal;clip-rule:evenodd;fill-rule:evenodd;stroke-linecap:round;stroke-linejoin:round;stroke-miterlimit:1.5"
   id="text12-5"><tspan
     sodipodi:role="line"
     id="tspan10"
     x="133.76105"
     y="482.21597">bold area</tspan></text></g>
                <g
   transform="translate(14.875,-285.954)"
   id="g14">
                    <text
   x="40.921001"
   y="853"
   style="font-style:normal;font-variant:normal;font-weight:normal;font-stretch:normal;font-size:18.149px;font-family:ArialMT, Arial, sans-serif;-inkscape-font-specification:'ArialMT, Arial, sans-serif, Normal';font-variant-ligatures:normal;font-variant-caps:normal;font-variant-numeric:normal;font-variant-east-asian:normal"
   id="text14"><tspan
     sodipodi:role="line"
     id="tspan13"
     x="40.921001"
     y="853">The link was deactivated to give you time to check the domain.</tspan></text>
                </g>
                <g
   transform="translate(16.1954,-281.707)"
   id="g15">
                    <text
   x="40.921001"
   y="884.53998"
   style="font-style:normal;font-variant:normal;font-weight:normal;font-stretch:normal;font-size:18.149px;font-family:ArialMT, Arial, sans-serif;-inkscape-font-specification:'ArialMT, Arial, sans-serif, Normal';font-variant-ligatures:normal;font-variant-caps:normal;font-variant-numeric:normal;font-variant-east-asian:normal"
   id="text15"><tspan
     sodipodi:role="line"
     id="tspan14"
     x="40.921001"
     y="884.53998">Time remaining: 2 second(s).</tspan></text>
                </g>
                <g
   id="more_information_classification"
   transform="translate(0.98364,-71.2288)">
                    <g
   transform="translate(-592.961,-556.608)"
   id="g16">
                        <text
   x="695"
   y="1149.09"
   style="font-style:normal;font-variant:normal;font-weight:normal;font-stretch:normal;font-size:19px;font-family:ArialMT, Arial, sans-serif;-inkscape-font-specification:'ArialMT, Arial, sans-serif, Normal';font-variant-ligatures:normal;font-variant-caps:normal;font-variant-numeric:normal;font-variant-east-asian:normal"
   id="text16"><tspan
     sodipodi:role="line"
     id="tspan12"
     x="695"
     y="1149.09">More information on this classification</tspan></text>
                        <rect
   x="695"
   y="1151.1"
   width="317.33524"
   height="1.392"
   id="rect16"
   style="stroke-width:0.99018" />
                    </g>
                    <g
   id="info_icon"
   transform="translate(-591.961,-552.438)">
                        <g
   id="information_icon_text"
   transform="translate(0,0.499922)">
                            <g
   transform="matrix(30,0,0,30,658.802,1148.72)"
   id="g17">
                                <path
   d="M 0.199,0 C 0.181,0.004 0.177,0.008 0.127,0.009 0.118,0.009 0.108,0.006 0.102,0.005 0.076,0 0.064,-0.008 0.065,-0.018 v -0.003 c 0.016,-0.092 0.025,-0.145 0.028,-0.16 0.01,-0.062 0.014,-0.116 0.014,-0.161 0,-0.01 -0.004,-0.017 -0.014,-0.021 -0.01,-0.003 -0.022,-0.005 -0.037,-0.005 -0.015,0 -0.025,0.001 -0.03,0.001 l 0.002,-0.026 c 0.009,0.002 0.017,0.002 0.025,0.002 h 0.024 c 0.016,0 0.039,-0.004 0.069,-0.012 0.031,-0.008 0.053,-0.012 0.067,-0.012 0.011,0 0.018,0.004 0.02,0.012 0.003,0.007 0.004,0.015 0.004,0.021 0,0.056 -0.004,0.123 -0.013,0.203 -0.006,0.041 -0.01,0.082 -0.015,0.122 l 0.052,-0.011 0.005,0.031 c -0.01,0.008 -0.02,0.015 -0.03,0.02 C 0.226,-0.011 0.212,-0.003 0.199,0 Z"
   style="fill:#0a1457;fill-rule:nonzero"
   id="path16" />
                            </g>
                            <g
   transform="matrix(1.75018,0,0,1.75018,-498.398,-849.473)"
   id="g18">
                                <circle
   cx="664.36902"
   cy="1132.35"
   r="1.3329999"
   style="fill:#0a1457"
   id="circle17" />
                            </g>
                        </g>
                        <g
   transform="matrix(0.9375,0,0,0.9375,41.6198,72.1875)"
   id="g19">
                            <circle
   cx="663"
   cy="1139"
   r="16"
   style="fill:none;stroke:#0a1457;stroke-width:3px"
   id="circle18" />
                        </g>
                    </g>
                </g>
            </g>
            <g
   transform="translate(-3,-2)"
   id="g20">
                <text
   x="26.239"
   y="969.47601"
   style="font-style:normal;font-variant:normal;font-weight:normal;font-stretch:normal;font-size:18.149px;font-family:ArialMT, Arial, sans-serif;-inkscape-font-specification:'ArialMT, Arial, sans-serif, Normal';font-variant-ligatures:normal;font-variant-caps:normal;font-variant-numeric:normal;font-variant-east-asian:normal;display:inline;fill:#195ace"
   id="text19"
   inkscape:label="text19"><tspan
     sodipodi:role="line"
     id="tspan21"
     x="26.239"
     y="969.47601">https://www.example.com</tspan></text>
                <rect
   x="26.239"
   y="971.39801"
   width="205.05836"
   height="1.329"
   style="fill:#195ace;stroke-width:0.76512"
   id="rect19" />
            </g>
            <g
   id="mouse_cursor"
   transform="matrix(0.600152,0,0,0.600152,57.0454,821.711)">
                <path
   d="m 76.403338,272 c 0.832999,1.715 2.844999,3.407 3.999998,5.292 1.544,2.523 5.265999,9.841 5.265999,9.841 0,0 2.683999,4.556 4.733998,5.867 2.05,1.311 5.232999,2 7.565998,2 2.245999,0 4.567999,-0.75 6.433999,-2 2.239,-1.5 5.774,-3.936 7,-7 1.333,-3.333 1,-9.167 1,-13 0,-3.35 -0.412,-8.122 -1,-10 -1.038,-3.315 -5.713,-2.134 -5.643,-0.935 0.15,2.567 0.077,4.068 0.077,4.068 0,0 0.138,-4.778 -0.434,-6.133 -0.467,-1.107 -1.969,-2 -3,-2 -1.031,0 -3.467999,0.29 -3.183999,2 0.284,1.71 0,6 0,6 0,0 0.303,-4.5 0,-6 -0.231,-1.146 -1.013,-2.5 -1.816,-3 -0.802999,-0.5 -2.230999,-0.138 -2.999999,0 -0.595,0.107 -1.611999,0.829 -1.611999,0.829 l 0.046,8.171 c 0,0 -0.008,-18.903 -0.474,-20.769 -0.566,-2.264 -6.227998,-2.582 -6.999998,0 -0.773,2.581 0.04,26.769 0.04,26.769 0,0 -4.811999,-6.643 -5.999998,-7 -1.188,-0.357 -3.722999,-0.123 -3.999999,2 -0.277,2.123 0.257,3.471 1,5 z"
   style="fill:#ffffff;stroke:#000000;stroke-width:2.03px"
   id="path20" />
            </g>
        </g>
    </g>
</svg>
