<?xml version="1.0" encoding="UTF-8" standalone="no"?>
<svg
   width="575"
   height="268.5"
   viewBox="0 0 575 268.5"
   version="1.1"
   xml:space="preserve"
   style="clip-rule:evenodd;fill-rule:evenodd;stroke-linecap:round;stroke-linejoin:round;stroke-miterlimit:1.5"
   id="svg17"
   sodipodi:docname="green_case_two_de.svg"
   inkscape:version="1.4.3 (0d15f75, 2025-12-25)"
   xmlns:inkscape="http://www.inkscape.org/namespaces/inkscape"
   xmlns:sodipodi="http://sodipodi.sourceforge.net/DTD/sodipodi-0.dtd"
   xmlns="http://www.w3.org/2000/svg"
   xmlns:svg="http://www.w3.org/2000/svg"><defs
   id="defs17" /><sodipodi:namedview
   id="namedview17"
   pagecolor="#ffffff"
   bordercolor="#000000"
   borderopacity="0.25"
   inkscape:showpageshadow="2"
   inkscape:pageopacity="0.0"
   inkscape:pagecheckerboard="0"
   inkscape:deskcolor="#d1d1d1"
   inkscape:zoom="2.9659201"
   inkscape:cx="298.3897"
   inkscape:cy="117.83864"
   inkscape:window-width="2560"
   inkscape:window-height="1334"
   inkscape:window-x="2869"
   inkscape:window-y="-11"
   inkscape:window-maximized="1"
   inkscape:current-layer="blue_case_de" />
    <g
   transform="translate(-21,-368)"
   id="g17">
        <g
   id="blue_case_de"
   transform="translate(0,51.1207)">
            <g
   id="border_template"
   transform="matrix(4.87356,0,0,2.7384106,-149.336,257.08068)">
                <path
   d="m 153,32 c 0,-1.104 -0.46,-2 -1.026,-2 H 36.026 C 35.46,30 35,30.896 35,32 v 86 c 0,1.104 0.46,2 1.026,2 h 115.948 c 0.566,0 1.026,-0.896 1.026,-2 z"
   style="fill:#ffffff"
   id="path1" />
                <path
   d="m 153,32 c 0,-1.104 -0.46,-2 -1.026,-2 H 36.026 C 35.46,30 35,30.896 35,32 v 86 c 0,1.104 0.46,2 1.026,2 h 115.948 c 0.566,0 1.026,-0.896 1.026,-2 z M 36.231,32.4 v 85.2 H 151.769 V 32.4 Z"
   style="fill:#008000;fill-opacity:1"
   id="path2" />
            </g>
            <g
   transform="translate(-2.19632,-6.58598)"
   id="g2">
                <text
   x="24.239"
   y="337"
   style="font-style:normal;font-variant:normal;font-weight:normal;font-stretch:normal;font-size:18.149px;font-family:ArialMT, Arial, sans-serif;-inkscape-font-specification:'ArialMT, Arial, sans-serif, Normal';font-variant-ligatures:normal;font-variant-caps:normal;font-variant-numeric:normal;font-variant-east-asian:normal;fill:#195ace"
   id="text2"><tspan
     sodipodi:role="line"
     id="tspan17"
     x="24.239"
     y="337">https://www.knownpage.com/home</tspan></text>
                <rect
   x="24.239"
   y="338.923"
   width="279.57123"
   height="1.329"
   style="fill:#195ace;stroke-width:1.05296"
   id="rect2" />
            </g>
            <g
   id="text_in_border"
   transform="translate(-16.2752,8.6588)">
                <g
   id="URL_optimized_readability"
   transform="translate(-1,-1)">
                    
                    
                    <text
   x="56.824997"
   y="399"
   style="font-style:normal;font-variant:normal;font-weight:bold;font-stretch:normal;font-size:18.149px;font-family:Arial-BoldMT, Arial, sans-serif;-inkscape-font-specification:'Arial-BoldMT, Arial, sans-serif, Bold';font-variant-ligatures:normal;font-variant-caps:normal;font-variant-numeric:normal;font-variant-east-asian:normal"
   id="text5"><tspan
     sodipodi:role="line"
     id="tspan19"
     x="56.824997"
     y="399">k n o w n p a g e . c o m</tspan></text>
                    <text
   x="266.60501"
   y="399"
   style="font-style:normal;font-variant:normal;font-weight:normal;font-stretch:normal;font-size:18.149px;font-family:ArialMT, Arial, sans-serif;-inkscape-font-specification:'ArialMT, Arial, sans-serif, Normal';font-variant-ligatures:normal;font-variant-caps:normal;font-variant-numeric:normal;font-variant-east-asian:normal;fill:#0000ff;fill-opacity:1"
   id="text6"><tspan
     sodipodi:role="line"
     id="tspan18"
     x="266.60501"
     y="399">[..]</tspan></text>
                </g>
                <g
   id="first_line"
   transform="translate(-2.25699)">
                    <text
   x="58"
   y="362"
   style="font-size:18.149px;font-family:ArialMT, Arial, sans-serif"
   id="text7">Hinterlegte URL<tspan
   x="186.44 191.483"
   y="362 362"
   id="tspan6"> (</tspan>auch W<tspan
   x="258.72501 268.81799"
   y="362 362"
   id="tspan7">eb</tspan>adresse genannt):</text>
                </g>
                <g
   transform="translate(-5.45944,3)"
   id="g12">
                    <text
   x="62"
   y="434.78699"
   style="font-size:18.149px;font-family:ArialMT, Arial, sans-serif"
   id="text8">Ge<tspan
   x="86.355003 92.471001 96.575996 106.742 116.908 127.074 136.22099 141.336 154.515 158.619 167.76601 171.871 181.01801 191.18401 196.299 201.41299 214.592 224.758 233.905 239.02 252.19901 256.30399 265.45099 269.55499 278.702 288.86801 293.983 299.09799 309.26401 315.38 320.495 330.66101 340.827 349.974 355.08899 367.26599 371.371 375.47501 384.62201 393.76901 403.935 414.10101 419.216 429.38199 439.548 444.66299 449.77802 459.944 470.10999 480.276 485.39001 495.556 499.66101 509.827 518.974 524.08899 537.26801 541.37201 547.48901"
   y="434.78699 434.78699 434.78699 434.78699 434.78699 434.78699 434.78699 434.78699 434.78699 434.78699 434.78699 434.78699 434.78699 434.78699 434.78699 434.78699 434.78699 434.78699 434.78699 434.78699 434.78699 434.78699 434.78699 434.78699 434.78699 434.78699 434.78699 434.78699 434.78699 434.78699 434.78699 434.78699 434.78699 434.78699 434.78699 434.78699 434.78699 434.78699 434.78699 434.78699 434.78699 434.78699 434.78699 434.78699 434.78699 434.78699 434.78699 434.78699 434.78699 434.78699 434.78699 434.78699 434.78699 434.78699 434.78699 434.78699 434.78699 434.78699 434.78699"
   id="tspan8">ringes Risiko: Das Risiko für das Klicken auf den Link wird</tspan></text>
                    <text
   x="62"
   y="458.53"
   style="font-size:18.149px;font-family:ArialMT, Arial, sans-serif"
   id="text9">au<tspan
   x="82.332001 87.446999 97.612999 103.729 113.895 124.061 134.22701 139.342 144.457 154.623 160.739 170.905 181.071 186.186 191.30099 197.41701 207.58299 217.74899 227.91499 234.03101 244.19701 254.36301 258.47601 270.65399 280.82001 290.98599 301.15201 311.31799 321.48401 331.64999 336.76501 345.91199 356.078 362.194 367.30899 378.48499 388.651 394.767 399.88199 405.99799 416.164 426.32999 436.496 446.66199 455.80899 468.98801 479.15399 485.26999 495.436 499.54099 509.707 518.854 529.02002 533.12402 538.23901 543.354 553.52002"
   y="458.53 458.53 458.53 458.53 458.53 458.53 458.53 458.53 458.53 458.53 458.53 458.53 458.53 458.53 458.53 458.53 458.53 458.53 458.53 458.53 458.53 458.53 458.53 458.53 458.53 458.53 458.53 458.53 458.53 458.53 458.53 458.53 458.53 458.53 458.53 458.53 458.53 458.53 458.53 458.53 458.53 458.53 458.53 458.53 458.53 458.53 458.53 458.53 458.53 458.53 458.53 458.53 458.53 458.53 458.53 458.53 458.53"
   id="tspan9">fgrund Ihren früheren Angaben zur Vertrauenswürdigkeit de</tspan>r</text>
                    <text
   x="62"
   y="482.272"
   style="font-size:18.149px;font-family:ArialMT, Arial, sans-serif"
   id="text10">Do<tspan
   x="85.345001 100.535 110.701 114.806 124.972"
   y="482.272 482.272 482.272 482.272 482.272"
   id="tspan10">main </tspan>(</text>
                    <text
   x="136.203"
   y="482.272"
   style="font-style:normal;font-variant:normal;font-weight:bold;font-stretch:normal;font-size:18.149px;font-family:Arial-BoldMT, Arial, sans-serif;-inkscape-font-specification:'Arial-BoldMT, Arial, sans-serif, Bold';font-variant-ligatures:normal;font-variant-caps:normal;font-variant-numeric:normal;font-variant-east-asian:normal"
   id="text11"><tspan
     sodipodi:role="line"
     id="tspan1"
     x="136.203"
     y="482.272">fett hervorgehobener Bereich der URL</tspan></text>
                    <text
   x="465.24301"
   y="482.272"
   style="font-style:normal;font-variant:normal;font-weight:normal;font-stretch:normal;font-size:18.149px;font-family:ArialMT, Arial, sans-serif;-inkscape-font-specification:'ArialMT, Arial, sans-serif, Normal';font-variant-ligatures:normal;font-variant-caps:normal;font-variant-numeric:normal;font-variant-east-asian:normal"
   id="text12"><tspan
     sodipodi:role="line"
     id="tspan3"
     x="465.24301"
     y="482.272">) als gering</tspan></text>
                <text
   x="61.900051"
   y="506.16852"
   style="font-style:normal;font-variant:normal;font-weight:normal;font-stretch:normal;font-size:18.149px;font-family:ArialMT, Arial, sans-serif;-inkscape-font-specification:'ArialMT, Arial, sans-serif, Normal';font-variant-ligatures:normal;font-variant-caps:normal;font-variant-numeric:normal;font-variant-east-asian:normal;clip-rule:evenodd;fill-rule:evenodd;stroke-linecap:round;stroke-linejoin:round;stroke-miterlimit:1.5"
   id="text9-8"><tspan
     sodipodi:role="line"
     id="tspan2"
     x="61.900051"
     y="506.16852">eingestuft.</tspan></text></g>
                <g
   id="more_information_classification"
   transform="translate(0.98364,-45.9701)"
   inkscape:label="more_information_classification">
                    <g
   transform="translate(-592.961,-556.608)"
   id="g13">
                        <text
   x="695"
   y="1149.09"
   style="font-size:19px;font-family:ArialMT, Arial, sans-serif"
   id="text13">M<tspan
   x="710.35199 720.44397 730.53601 736.388 741.19202 745.99597 756.08801 760.89099 770.98297 776.83502 792.18799 802.27899 807.08301 810.82898 820.92102 831.013 841.10498 851.19702 856.00098 865.026 875.11798 879.922 890.013 893.76001 903.85199 912.87701 922.96802 928.82098 933.62402 945.82202 949.56799 959.65997 968.685 973.48901 983.58099 988.38501 998.47699 1008.57"
   y="1149.09 1149.09 1149.09 1149.09 1149.09 1149.09 1149.09 1149.09 1149.09 1149.09 1149.09 1149.09 1149.09 1149.09 1149.09 1149.09 1149.09 1149.09 1149.09 1149.09 1149.09 1149.09 1149.09 1149.09 1149.09 1149.09 1149.09 1149.09 1149.09 1149.09 1149.09 1149.09 1149.09 1149.09 1149.09 1149.09 1149.09 1149.09"
   id="tspan13">ehr Informationen zu dieser Einstufung</tspan></text>
                        <rect
   x="695"
   y="1151.1"
   width="323.66101"
   height="1.392"
   id="rect13" />
                    </g>
                    <g
   id="info_icon"
   transform="translate(-591.961,-552.438)">
                        <g
   id="information_icon_text"
   transform="translate(0,0.499922)">
                            <g
   transform="matrix(30,0,0,30,658.802,1148.72)"
   id="g14">
                                <path
   d="M 0.199,0 C 0.181,0.004 0.177,0.008 0.127,0.009 0.118,0.009 0.108,0.006 0.102,0.005 0.076,0 0.064,-0.008 0.065,-0.018 v -0.003 c 0.016,-0.092 0.025,-0.145 0.028,-0.16 0.01,-0.062 0.014,-0.116 0.014,-0.161 0,-0.01 -0.004,-0.017 -0.014,-0.021 -0.01,-0.003 -0.022,-0.005 -0.037,-0.005 -0.015,0 -0.025,0.001 -0.03,0.001 l 0.002,-0.026 c 0.009,0.002 0.017,0.002 0.025,0.002 h 0.024 c 0.016,0 0.039,-0.004 0.069,-0.012 0.031,-0.008 0.053,-0.012 0.067,-0.012 0.011,0 0.018,0.004 0.02,0.012 0.003,0.007 0.004,0.015 0.004,0.021 0,0.056 -0.004,0.123 -0.013,0.203 -0.006,0.041 -0.01,0.082 -0.015,0.122 l 0.052,-0.011 0.005,0.031 c -0.01,0.008 -0.02,0.015 -0.03,0.02 C 0.226,-0.011 0.212,-0.003 0.199,0 Z"
   style="fill:#0a1457;fill-rule:nonzero"
   id="path13" />
                            </g>
                            <g
   transform="matrix(1.75018,0,0,1.75018,-498.398,-849.473)"
   id="g15">
                                <circle
   cx="664.36902"
   cy="1132.35"
   r="1.3329999"
   style="fill:#0a1457"
   id="circle14" />
                            </g>
                        </g>
                        <g
   transform="matrix(0.9375,0,0,0.9375,41.6198,72.1875)"
   id="g16">
                            <circle
   cx="663"
   cy="1139"
   r="16"
   style="fill:none;stroke:#0a1457;stroke-width:3px"
   id="circle15" />
                        </g>
                    </g>
                </g>
            </g>
            <g
   id="mouse_cursor"
   transform="matrix(0.565212,0,0,0.565212,2.18179,188.138)">
                <path
   d="m 353,272 c 0.833,1.715 2.845,3.407 4,5.292 1.544,2.523 5.266,9.841 5.266,9.841 0,0 2.684,4.556 4.734,5.867 2.05,1.311 5.233,2 7.566,2 2.246,0 4.568,-0.75 6.434,-2 2.239,-1.5 5.774,-3.936 7,-7 1.333,-3.333 1,-9.167 1,-13 0,-3.35 -0.412,-8.122 -1,-10 -1.038,-3.315 -5.713,-2.134 -5.643,-0.935 0.15,2.567 0.077,4.068 0.077,4.068 0,0 0.138,-4.778 -0.434,-6.133 -0.467,-1.107 -1.969,-2 -3,-2 -1.031,0 -3.468,0.29 -3.184,2 0.284,1.71 0,6 0,6 0,0 0.303,-4.5 0,-6 -0.231,-1.146 -1.013,-2.5 -1.816,-3 -0.803,-0.5 -2.231,-0.138 -3,0 -0.595,0.107 -1.612,0.829 -1.612,0.829 l 0.046,8.171 c 0,0 -0.008,-18.903 -0.474,-20.769 -0.566,-2.264 -6.228,-2.582 -7,0 C 361.187,247.812 362,272 362,272 c 0,0 -4.812,-6.643 -6,-7 -1.188,-0.357 -3.723,-0.123 -4,2 -0.277,2.123 0.257,3.471 1,5 z"
   style="fill:#ffffff;stroke:#000000;stroke-width:2.03px"
   id="path16" />
            </g>
        </g>
    </g>
</svg>
